<svg xmlns="http://www.w3.org/2000/svg" width="100.484" height="100.851" viewBox="0 0 100.484 100.851">
  <g id="Group_124" data-name="Group 124" transform="translate(-819.79 -820.717)">
    <path id="Path_163" data-name="Path 163" d="M859.758,876.788a7.349,7.349,0,0,1-.694-1.474c-.282-1.294-1.011-1.616-2.3-1.558-2.619.119-5.248.053-7.872.022a1.1,1.1,0,0,0-1.171.743,9.622,9.622,0,1,1-.051-8.59,1.2,1.2,0,0,0,1.261.791c2.764-.038,5.529-.047,8.293,0,.738.013,1.1-.221,1.24-.914a1.824,1.824,0,0,1,.309-.774c.836-1.023.4-1.7-.427-2.518-5.751-5.68-11.45-11.412-17.168-17.125-.269-.269-.553-.523-.866-.818a12.039,12.039,0,0,1-8.825,1.337,12.8,12.8,0,1,1,15.8-11.686,20.57,20.57,0,0,1-1.56,5.167c-.192.55-.287.886.194,1.357q9.353,9.129,18.663,18.3c.074.073.163.129.308.243a13.077,13.077,0,0,1,12.722.01c.234-.217.443-.4.639-.6q7.575-7.568,15.158-15.127a1.213,1.213,0,0,0,.351-1.53,8.938,8.938,0,0,1,2.027-9.888,9.694,9.694,0,0,1,16.627,5.2,9.543,9.543,0,0,1-8.766,11.13c-1.367.124-2.791-.427-4.195-.623a1.473,1.473,0,0,0-1.065.145q-8.126,8.055-16.2,16.169c-.046.046-.064.121.031-.066l1.769,5.678,12.375,2.283c.121-.175.247-.335.351-.508a12.786,12.786,0,0,1,14.463-6.069,13.048,13.048,0,0,1,9.091,12.832,12.711,12.711,0,0,1-11.88,12.521,12.908,12.908,0,0,1-13.59-11.219c-.044-.333-.312-.854-.562-.911-3.946-.9-7.905-1.733-11.9-2.59a13.812,13.812,0,0,1-3.948,4.759.977.977,0,0,0-.224.857c1.638,5.526,3.313,11.041,4.958,16.565.16.537.436.665.963.705a9.72,9.72,0,1,1-10.458,8.87,9.235,9.235,0,0,1,2.793-6.055,1.054,1.054,0,0,0,.305-1.273q-2.634-8.123-5.229-16.259c-.16-.5-.312-.849-.97-.824a12.019,12.019,0,0,1-5.565-1.291,1,1,0,0,0-1.355.2q-9.658,9.715-19.375,19.372c-.535.531-.377.906-.136,1.451,2.9,6.561.516,13.758-5.713,16.843a12.234,12.234,0,0,1-13.881-1.437c-4.3-3.445-5.561-8.159-4.184-13.4,1.344-5.118,4.824-8.231,10.007-9.345a12.621,12.621,0,0,1,8.272,1.085.924.924,0,0,0,1.263-.188q9.812-9.859,19.658-19.683A3.789,3.789,0,0,0,859.758,876.788ZM834.18,839.827a6.28,6.28,0,0,0,6.154-6.268,6.054,6.054,0,1,0-6.154,6.268Zm-1.527,74.928a5.844,5.844,0,0,0,6-6.063,6.048,6.048,0,1,0-6,6.063Zm44.3-44.376a6.048,6.048,0,1,0-6.036,6.088A6.032,6.032,0,0,0,876.951,870.379Zm36.955,7.389a6.047,6.047,0,1,0-6.031,6.1A6.058,6.058,0,0,0,913.906,877.768ZM902.735,841.5a3,3,0,0,0,3.108-2.881,3.04,3.04,0,0,0-2.984-3.133,3.008,3.008,0,0,0-.124,6.014Zm-63.816,31.912a3,3,0,0,0,3.089-2.9,3.036,3.036,0,0,0-3-3.113,3.007,3.007,0,0,0-.086,6.014ZM880.681,908.7a2.994,2.994,0,1,0,5.988.079,2.995,2.995,0,1,0-5.988-.079Z" fill="#fff"/>
  </g>
</svg>
