<svg xmlns="http://www.w3.org/2000/svg" width="103.93" height="103.942" viewBox="0 0 103.93 103.942">
  <g id="Group_128" data-name="Group 128" transform="translate(-808 -808.592)">
    <path id="Path_165" data-name="Path 165" d="M808,851.448c.816-2.441,2.545-3.326,5.063-3.275,4.767.1,9.538-.008,14.306.048a3.55,3.55,0,0,0,3.341-1.818q9.574-15,19.241-29.932a23.634,23.634,0,0,1,4.263-5.226,11.79,11.79,0,0,1,14.169-.56,12.159,12.159,0,0,1,4.956,13.431,9.283,9.283,0,0,1-.569,1.4c-2.206,4.634-4.4,9.273-6.643,13.889-.8,1.654-.377,2.406.957,3.466a6.476,6.476,0,0,0,4.185,1.271q13.038-.015,26.077,0a11.59,11.59,0,0,1,10.109,17.5c.211.161.439.306.634.486A11.611,11.611,0,0,1,908,879.463c-.411.373-.63.624-.339,1.25a11.4,11.4,0,0,1-4.342,14.874c-.167.108-.331.222-.556.374a11.681,11.681,0,0,1,.708,7.62,11.012,11.012,0,0,1-9.343,8.786,2.818,2.818,0,0,0-.47.167H854.077l-.737-.315a4.046,4.046,0,0,1,1.45-7.791c2.029-.039,4.059-.011,6.088-.011q15.525,0,31.05,0c2.187,0,3.3-.872,3.682-2.846a3.233,3.233,0,0,0-1.431-3.522c-.166-.116-.341-.219-.512-.327-1.971-1.257-2.8-3.029-2.307-4.946a4.864,4.864,0,0,1,4.543-3.564c.337-.021.676-.01,1.014-.013a3.539,3.539,0,0,0,3.694-2.558,3.386,3.386,0,0,0-1.838-3.981,5.059,5.059,0,0,1-2.453-2.722,4.33,4.33,0,0,1,4.052-5.7,3.529,3.529,0,0,0,3.411-3.125c.225-1.72-.886-3.109-2.806-3.824a7.452,7.452,0,0,1-2.424-1.394,4.418,4.418,0,0,1-.059-6.506c.377-.384.828-.694,1.232-1.053a3.432,3.432,0,0,0-2.222-6.064c-2.909-.023-5.818-.008-8.726-.008-5.953,0-11.906.031-17.859-.011a14.053,14.053,0,0,1-10.5-4.507,9.952,9.952,0,0,1-2.818-6.149,6.655,6.655,0,0,1,.48-3.048c2.252-5.2,4.617-10.357,6.919-15.538a6.438,6.438,0,0,0,.64-2.1,3.906,3.906,0,0,0-2.831-3.975,3.694,3.694,0,0,0-4.436,1.7c-6.93,10.69-13.886,21.364-20.778,32.08a11.311,11.311,0,0,1-10.324,5.62c-4.734-.068-9.472-.083-14.205.013-2.518.051-4.246-.837-5.065-3.275Z" transform="translate(0 0)" fill="#fff"/>
    <path id="Path_166" data-name="Path 166" d="M808,1059.1a10.868,10.868,0,0,1,1.161-1.988,3.992,3.992,0,0,1,5.875.031q5.126,4.841,10.219,9.716,1.8,1.713,3.6,3.426c1.872,1.775,3.707,1.607,5.208-.481q10.74-14.945,21.469-29.9c1.1-1.541,2.489-2.408,4.4-2.029a4.032,4.032,0,0,1,2.442,6.42c-1.973,2.827-4.016,5.6-6.028,8.4-5.208,7.246-10.441,14.473-15.609,21.747a12.042,12.042,0,0,1-7.711,4.974,3.254,3.254,0,0,0-.469.173h-2.639c-3.559-.572-6.09-2.786-8.552-5.2-3.71-3.638-7.545-7.149-11.261-10.781A20.784,20.784,0,0,1,808,1060.72Z" transform="translate(0 -167.061)" fill="#fff"/>
  </g>
</svg>
