<svg xmlns="http://www.w3.org/2000/svg" width="126.668" height="100.851" viewBox="0 0 126.668 100.851">
  <g id="Group_127" data-name="Group 127" transform="translate(-808 -846.786)">
    <path id="Path_164" data-name="Path 164" d="M808,882.931q6.993-8.391,13.988-16.779,7.5-8.958,15.018-17.893c1.519-1.809,2.821-1.95,4.638-.437q5.461,4.548,10.893,9.13c1.839,1.545,2.009,2.162,1.2,4.442.94.808,1.876,1.674,2.885,2.444a2.473,2.473,0,0,0,1.26.331c3.2.245,6.4.565,9.61.647,1.7.043,2.949,1.732,4.89.922a18.486,18.486,0,0,1,4.9-1.1c2.246-.268,4.517-.378,6.78-.421a3.774,3.774,0,0,0,2.858-1.132c.6-.614,1.3-1.122,1.936-1.658-.8-2.4-.644-2.909,1.275-4.518q5.257-4.406,10.507-8.822c2.157-1.812,3.294-1.738,5.08.384q13.928,16.549,27.845,33.107c1.609,1.914,1.472,3.195-.474,4.82-3.668,3.064-7.311,6.156-11.006,9.186-1.67,1.37-2.443,1.353-4.321.165-.974.813-2,1.63-2.972,2.507a1.942,1.942,0,0,0-.463.965c-.508,2.12-.976,4.25-1.477,6.372a14.9,14.9,0,0,1-4.519,8.438,8.107,8.107,0,0,1,3.225,7.08,7.928,7.928,0,0,1-4.191,6.428c1.839,4.5,1.378,7.659-1.448,10.236s-5.9,2.644-10.545.22c-1.779,3.661-5.381,6.021-10.715,4.325a7.985,7.985,0,0,1-7.208,5.3c-3.548.236-5.8-2.166-8.277-4.289-.818.656-1.635,1.266-2.4,1.934a7.89,7.89,0,0,1-12.922-3.885,4.126,4.126,0,0,0-.2-.488c-3.484.19-6.338-1.041-7.859-4.217a3.589,3.589,0,0,0-3.274-2.436c-3.383-.407-5.825-3.35-6.268-7.009-.073-.6-.182-.894-.858-1.078a7.9,7.9,0,0,1-3.3-13.573c.18-.165.387-.3.618-.476-2.6-3.449-3.026-7.528-3.9-11.435a5.289,5.289,0,0,0-2.231-3.63,18.311,18.311,0,0,1-1.606-1.325c-1.814,1.541-3.31.747-4.863-.588-3.435-2.954-6.961-5.8-10.428-8.722A22.458,22.458,0,0,1,808,884.662Zm42.177-17.561-21.97,26.208a6.521,6.521,0,0,0,.78.732,11.608,11.608,0,0,1,5.147,8.607,13.55,13.55,0,0,0,.36,1.815c.567,2,1.166,3.983,1.8,6.133,2.984-1.79,5.759-2.055,8.537-.6,2.839,1.489,4.1,4.028,4.278,7.136a7.975,7.975,0,0,1,6.589,6.318c4.606-.095,7.55,2.021,8.818,6.375l3.147.2c-.2-.266-.384-.484-.545-.716a2.526,2.526,0,0,1,.136-3.379,2.655,2.655,0,0,1,3.495-.214c.368.263.7.569,1.053.859,4.811,4.008,9.61,8.03,14.449,12a3.45,3.45,0,0,0,1.865.758,2.3,2.3,0,0,0,2.375-1.635,2.6,2.6,0,0,0-.812-3.019q-3.376-2.9-6.771-5.775c-3.1-2.646-6.23-5.268-9.3-7.949a2.576,2.576,0,0,1,.621-4.513,2.876,2.876,0,0,1,3.057.737q10.875,9.152,21.784,18.264c1.457,1.219,3.031,1.2,4.05.01,1.043-1.219.747-2.829-.725-4.067Q891.891,920.838,881.4,912c-1.39-1.172-1.607-2.7-.617-3.893a2.642,2.642,0,0,1,3.944-.167q8.662,7.268,17.292,14.574a2.382,2.382,0,0,0,2.96.3,2.26,2.26,0,0,0,1.234-2.7,4.759,4.759,0,0,0-1.437-2.049q-13.582-11.5-27.223-22.934c-2.075-1.745-4.158-3.479-6.272-5.246-.42.357-.757.651-1.1.935-2.259,1.854-4.395,3.891-6.808,5.516a8.994,8.994,0,0,1-12.57-2.729,8.806,8.806,0,0,1,1.226-11.411c2.446-2.434,5.173-4.589,7.806-6.83,2.06-1.753,4.167-3.45,6.522-5.393-.768-.069-1.2-.12-1.628-.144-2.632-.149-5.276-.2-7.893-.482a7.771,7.771,0,0,1-3.157-1.175A36.53,36.53,0,0,1,850.177,865.371Zm64.24,26.345-22.007-26.357c-.826.693-1.616,1.288-2.326,1.966a7.532,7.532,0,0,1-5.106,2.163c-2.346.09-4.689.266-7.036.336a8.984,8.984,0,0,0-5.77,2.16c-2.509,2.136-5.071,4.209-7.591,6.334q-4.44,3.743-8.844,7.528c-2.28,1.953-1.007,5.9,1.929,6.61,1.872.456,3.081-.579,4.307-1.6,4.058-3.367,8.068-6.79,12.123-10.161a2.55,2.55,0,0,1,3.752.183,2.653,2.653,0,0,1-.368,3.842c-.656.6-1.34,1.162-2.053,1.776l28.732,24.156a8.128,8.128,0,0,0,3.227-5.038c.569-2.57,1.176-5.132,1.751-7.7a6.733,6.733,0,0,1,2.613-4.061C912.639,893.191,913.482,892.47,914.418,891.716Zm13.955-8.254-25.422-30.3-8.175,6.7,25.386,30.324Zm-105.912,6.8,25.39-30.322-8.069-6.777-25.423,30.3Zm39.442,51.8a2.22,2.22,0,0,0,.94-.3c1.66-1.405,3.344-2.794,4.875-4.333a2.4,2.4,0,0,0-.127-3.177,2.372,2.372,0,0,0-3-.676,59.035,59.035,0,0,0-5.131,4.393,2.159,2.159,0,0,0-.2,2.659A2.671,2.671,0,0,0,861.9,942.056Zm-21.021-29.5a3.218,3.218,0,0,0-1.083.428c-1.576,1.257-3.15,2.523-4.627,3.893a2.452,2.452,0,0,0-.123,3.373,2.416,2.416,0,0,0,3.413.538c1.608-1.211,3.15-2.521,4.633-3.883a2.3,2.3,0,0,0,.456-2.848A2.658,2.658,0,0,0,840.883,912.557Zm15.791,14.359a2.475,2.475,0,0,0-1,.292c-1.693,1.36-3.408,2.706-4.98,4.2a2.446,2.446,0,0,0,.1,3.276,2.514,2.514,0,0,0,3.218.606c1.652-1.28,3.248-2.643,4.771-4.075a2.26,2.26,0,0,0,.4-2.743A2.665,2.665,0,0,0,856.674,926.915ZM844.257,929.2a2.33,2.33,0,0,0,.886-.283c1.635-1.3,3.313-2.57,4.817-4.016a2.343,2.343,0,0,0-.147-3.259,2.477,2.477,0,0,0-3.349-.426c-1.479,1.107-2.9,2.3-4.272,3.539a2.326,2.326,0,0,0-.534,2.833A2.7,2.7,0,0,0,844.257,929.2Zm28.913,3.387c.135,1.452.7,2.94.293,4.081-.869,2.438.31,3.6,2,4.88,1.337,1.008,2.73,1.163,3.831.048a2.636,2.636,0,0,0-.152-3.937c-1.195-1.066-2.468-2.045-3.694-3.077C874.681,933.932,873.936,933.257,873.17,932.585Z" transform="translate(0 0)" fill="#fff"/>
  </g>
</svg>
