<svg xmlns="http://www.w3.org/2000/svg" width="93.021" height="93" viewBox="0 0 93.021 93">
  <g id="Group_122" data-name="Group 122" transform="translate(-808 -808.74)">
    <path id="Path_162" data-name="Path 162" d="M893.935,901.74H815.086c-.2-.062-.392-.136-.594-.184a8.072,8.072,0,0,1-5.72-4.594,20.09,20.09,0,0,1-.772-2.306V815.824a2.008,2.008,0,0,0,.141-.331,8.159,8.159,0,0,1,8.436-6.751q37.915-.006,75.83.011a10.117,10.117,0,0,1,2.6.312c3.733,1.005,6.014,4.216,6.014,8.38q0,37.725,0,75.45c0,.3,0,.605-.008.908a8.248,8.248,0,0,1-6.216,7.7C894.507,901.574,894.222,901.66,893.935,901.74Zm-80.472-40.994v.906q0,15.71,0,31.42c0,2.146,1.08,3.2,3.258,3.2q8.81,0,17.62,0h1.028v-1.215q0-7.219,0-14.438c0-.333-.006-.667.022-1a2.694,2.694,0,0,1,3.1-2.456,2.785,2.785,0,0,1,2.35,3.068q.011,7.446,0,14.893v1.1h27.275V882.607H867.1q-4.587,0-9.174,0a7.044,7.044,0,0,1-1.085-.063,2.745,2.745,0,0,1-2.313-2.347,2.664,2.664,0,0,1,1.672-2.831,4.679,4.679,0,0,1,1.6-.237c3.118-.021,6.237-.009,9.355-.012.319,0,.638-.03,1.022-.049,0-2.6-.007-5.11.007-7.618a5.146,5.146,0,0,1,.152-1.345,2.708,2.708,0,0,1,5.182-.016,5.911,5.911,0,0,1,.131,1.529q.011,12.759.005,25.517v1.144h1.009q8.811,0,17.621,0c2.225,0,3.276-1.051,3.276-3.279q0-26.562,0-53.123V838.9H873.65v1.119c0,4.056-.009,8.112.006,12.168a2.843,2.843,0,0,1-1.074,2.475,2.553,2.553,0,0,1-2.819.3,2.742,2.742,0,0,1-1.586-2.646q-.007-6.175,0-12.35v-1.119h-1.116c-3.058,0-6.116,0-9.174,0a6.08,6.08,0,0,1-1.26-.112,2.731,2.731,0,0,1-2.09-2.253,2.551,2.551,0,0,1,1.389-2.72,5.027,5.027,0,0,1,2.009-.378q18.211-.032,36.422-.016h1.2v-1.036q0-7.4,0-14.8c0-2.293-1.03-3.322-3.323-3.322H840.846v1.166q0,10.034-.006,20.069a5.375,5.375,0,0,1-.147,1.436,2.7,2.7,0,0,1-4.173,1.437,2.928,2.928,0,0,1-1.157-2.616q.022-10.171.007-20.341V814.2h-1.093q-8.765,0-17.53,0c-2.233,0-3.283,1.044-3.284,3.269q0,18.389,0,36.777v.936h21.908c0-.833-.024-1.614.009-2.394a4.2,4.2,0,0,1,.214-1.328,2.69,2.69,0,0,1,3.011-1.65,2.78,2.78,0,0,1,2.232,2.819q.036,5.312,0,10.625a2.739,2.739,0,1,1-5.465-.047c-.013-.809,0-1.617,0-2.466Z" fill="#fff"/>
  </g>
</svg>
